<?xml version="1.0" encoding="UTF-8" standalone="no"?>
<!-- Created with Inkscape (http://www.inkscape.org/) -->

<svg
   width="47.669991mm"
   height="46.468323mm"
   viewBox="0 0 47.669991 46.468323"
   version="1.1"
   id="svg1"
   inkscape:version="1.3.2 (091e20e, 2023-11-25, custom)"
   sodipodi:docname="inomeado.svg"
   inkscape:export-filename="inomeado.jpg"
   inkscape:export-xdpi="1599.09"
   inkscape:export-ydpi="1599.09"
   xmlns:inkscape="http://www.inkscape.org/namespaces/inkscape"
   xmlns:sodipodi="http://sodipodi.sourceforge.net/DTD/sodipodi-0.dtd"
   xmlns="http://www.w3.org/2000/svg"
   xmlns:svg="http://www.w3.org/2000/svg">
  <sodipodi:namedview
     id="namedview1"
     pagecolor="#ffffff"
     bordercolor="#000000"
     borderopacity="0.25"
     inkscape:showpageshadow="2"
     inkscape:pageopacity="0.0"
     inkscape:pagecheckerboard="0"
     inkscape:deskcolor="#d1d1d1"
     inkscape:document-units="mm"
     inkscape:zoom="2.0485264"
     inkscape:cx="175.00385"
     inkscape:cy="633.87028"
     inkscape:window-width="1920"
     inkscape:window-height="1009"
     inkscape:window-x="-8"
     inkscape:window-y="-8"
     inkscape:window-maximized="1"
     inkscape:current-layer="svg1" />
  <defs
     id="defs1" />
  <g
     id="g151"
     transform="matrix(0.76507724,0,0,0.72310618,-33.545413,-251.10125)">
    <path
       style="fill:#184f78;stroke-width:1.15313"
       d="m 46.736001,382.01227 v 22.19826 c 0,4.03546 2.633999,7.3052 5.883805,7.3052 h 44.760388 c 3.249806,0 5.883806,-3.26974 5.883806,-7.3052 v -22.19826 z"
       id="path145" />
    <path
       style="fill:#fdc00f;fill-opacity:1;stroke:#184f78;stroke-width:1.10298;stroke-opacity:1"
       d="M 99.303346,359.05157 H 50.696701 c -3.479084,0 -6.299426,3.12828 -6.299426,6.98839 v 19.88369 c 0,0.7295 0.533069,1.32078 1.190764,1.32078 h 58.822921 c 0.6577,0 1.19076,-0.59128 1.19076,-1.32078 v -19.88369 c 0.001,-3.86011 -2.81929,-6.98839 -6.298374,-6.98839 z"
       id="path146" />
    <rect
       x="44.109756"
       y="385.28201"
       style="opacity:0.2;stroke-width:0.991283"
       width="60.825493"
       height="1.8864822"
       id="rect146" />
    <path
       style="opacity:0.634"
       d="m 53.144002,383.87504 c 0,-0.628 0.509,-1.137 1.137,-1.137 h 6.094 c 0.628,0 1.137,0.509 1.137,1.137 v 6.095 c 0,0.628 -0.509,1.137 -1.137,1.137 h -6.094 c -0.628,0 -1.137,-0.509 -1.137,-1.137 z"
       id="path147" />
    <path
       style="fill:#184f78;fill-opacity:1"
       d="m 53.144002,382.73804 c 0,-0.629 0.509,-1.137 1.137,-1.137 h 6.094 c 0.628,0 1.137,0.508 1.137,1.137 v 6.094 c 0,0.629 -0.509,1.138 -1.137,1.138 h -6.094 c -0.628,0 -1.137,-0.509 -1.137,-1.138 z"
       id="path148" />
    <path
       style="opacity:0.902;mix-blend-mode:normal"
       d="m 89.443997,383.372 c 0,-0.628 0.509,-1.137 1.137,-1.137 h 6.094 c 0.628,0 1.137,0.509 1.137,1.137 v 6.095 c 0,0.628 -0.509,1.137 -1.137,1.137 h -6.094 c -0.628,0 -1.137,-0.509 -1.137,-1.137 z"
       id="path149" />
    <path
       style="fill:#184f78;fill-opacity:1"
       d="m 89.443997,382.235 c 0,-0.629 0.509,-1.137 1.137,-1.137 h 6.094 c 0.628,0 1.137,0.508 1.137,1.137 v 6.094 c 0,0.629 -0.509,1.138 -1.137,1.138 h -6.094 c -0.628,0 -1.137,-0.509 -1.137,-1.138 z"
       id="path150" />
    <path
       style="fill:#184f78;fill-opacity:1;stroke-width:1.03193"
       d="m 91.50503,358.74934 h -4.693217 v -5.62815 c 0,-0.64805 -0.526285,-1.17433 -1.173305,-1.17433 H 64.83996 c -0.64702,0 -1.173305,0.52628 -1.173305,1.17433 v 5.62815 h -4.693217 v -5.62815 c 0,-3.2351 2.632453,-5.86755 5.867554,-5.86755 h 20.797516 c 3.235101,0 5.867554,2.63245 5.867554,5.86755 v 5.62815 z"
       id="path151" />
  </g>
  <g
     inkscape:label="Camada 1"
     inkscape:groupmode="layer"
     id="layer1"
     transform="translate(-63.190877,-137.0202)">
    <g
       id="g11"
       transform="matrix(0.29406907,0.14707741,-0.14707741,0.29406907,80.502872,119.48443)">
      <path
         style="fill:#184f78"
         d="m 54.496,76.256 v 19.855 c 0,2.269 15.958,7.108 20.505,7.108 4.547,0 20.504,-4.839 20.504,-7.108 V 76.256 Z"
         id="path1" />
      <polygon
         style="opacity:0.3"
         points="54.496,85.457 74.999,93.196 95.505,85.457 95.505,78.256 54.496,78.256 "
         id="polygon1" />
      <polygon
         style="fill:#184f78"
         points="36.383,74.203 74.999,88.779 113.617,74.203 74.999,59.628 "
         id="polygon2" />
      <polygon
         style="fill:#467293"
         points="113.617,74.203 74.999,88.779 36.383,74.203 36.383,76.203 74.999,90.779 113.617,76.203 "
         id="polygon3" />
      <g
         id="g9">
        <path
           style="fill:#184f78;fill-opacity:1"
           d="M 97.941,92.344 H 97.802 96.36 96.22 c 0,0 -3.78,5.338 -1.293,10.692 0.581,0 1.044,0 1.416,0 h 0.006 c 0.03,0 0.247,0 1.464,0 10e-4,0 0.004,0 0.005,0 0.372,0 0.835,0 1.416,0 2.487,-5.354 -1.293,-10.692 -1.293,-10.692 z"
           id="path3" />
        <g
           id="g8">
          <path
             style="fill:#fed96f"
             d="m 98.442,102.154 c 0.09,-0.487 0.045,-1.077 0.075,-1.693 0.015,-0.31 0.01,-0.627 -0.03,-0.948 -0.027,-0.321 -0.055,-0.648 -0.084,-0.974 -0.016,-0.325 -0.092,-0.642 -0.142,-0.957 -0.056,-0.311 -0.111,-0.618 -0.165,-0.915 -0.156,-0.578 -0.261,-1.129 -0.418,-1.574 -0.268,-0.91 -0.521,-1.471 -0.521,-1.471 0,0 0.212,0.589 0.411,1.518 0.123,0.455 0.188,1.014 0.298,1.595 0.031,0.295 0.063,0.602 0.096,0.912 0.026,0.311 0.078,0.623 0.07,0.941 0.004,0.315 0.009,0.633 0.013,0.943 0.017,0.31 -0.002,0.614 -0.037,0.907 -0.073,0.579 -0.065,1.135 -0.186,1.578 -0.095,0.419 -0.172,0.763 -0.23,1.02 0.073,0 0.138,0 0.22,0 0.001,0 0.004,0 0.005,0 0.145,0 0.316,0 0.492,0 0.038,-0.249 0.081,-0.536 0.133,-0.882 z"
             id="path4" />
          <path
             style="fill:#fed96f"
             d="m 96.338,102.017 c -0.12,-0.443 -0.113,-0.999 -0.185,-1.578 -0.036,-0.293 -0.054,-0.597 -0.038,-0.907 0.004,-0.311 0.008,-0.628 0.013,-0.943 -0.008,-0.318 0.044,-0.631 0.07,-0.941 0.033,-0.311 0.065,-0.617 0.097,-0.912 0.109,-0.581 0.176,-1.14 0.298,-1.595 0.198,-0.929 0.41,-1.518 0.41,-1.518 -0.001,0 -0.254,0.561 -0.521,1.471 -0.157,0.445 -0.263,0.996 -0.418,1.574 -0.054,0.297 -0.109,0.604 -0.165,0.915 -0.05,0.315 -0.126,0.63 -0.142,0.957 -0.029,0.326 -0.057,0.652 -0.085,0.974 -0.039,0.321 -0.043,0.639 -0.029,0.948 0.03,0.616 -0.016,1.206 0.075,1.693 0.052,0.346 0.095,0.633 0.132,0.882 0.174,0 0.346,0 0.491,0 h 0.006 c 0.013,0 0.068,0 0.22,0 -0.056,-0.258 -0.134,-0.601 -0.229,-1.02 z"
             id="path5" />
          <path
             style="fill:#fed96f"
             d="m 99.658,101.382 c 0.053,-0.308 0.079,-0.635 0.073,-0.975 0.02,-0.341 -0.008,-0.688 -0.045,-1.039 -0.016,-0.353 -0.106,-0.695 -0.163,-1.043 -0.297,-1.376 -0.892,-2.581 -1.383,-3.41 -0.501,-0.825 -0.905,-1.292 -0.905,-1.292 0,0 0.372,0.509 0.81,1.377 0.429,0.868 0.925,2.109 1.115,3.433 0.031,0.332 0.095,0.658 0.086,0.985 0.011,0.327 0.016,0.645 -0.024,0.951 -0.015,0.307 -0.057,0.596 -0.125,0.864 -0.05,0.272 -0.105,0.525 -0.194,0.745 -0.134,0.456 -0.3,0.802 -0.427,1.037 -0.005,0.01 -0.006,0.014 -0.011,0.021 0.23,0 0.484,0 0.768,0 0.052,-0.112 0.087,-0.225 0.133,-0.338 0.045,-0.147 0.091,-0.285 0.129,-0.458 0.082,-0.256 0.128,-0.547 0.163,-0.858 z"
             id="path6" />
          <path
             style="fill:#fed96f"
             d="m 97.081,93.622 -0.35,9.414 c 0.16,0 0.381,0 0.699,0 z"
             id="path7" />
          <path
             style="fill:#fed96f"
             d="m 95.685,103.015 c -0.127,-0.235 -0.293,-0.581 -0.427,-1.037 -0.088,-0.22 -0.145,-0.473 -0.194,-0.745 -0.068,-0.269 -0.111,-0.558 -0.125,-0.864 -0.04,-0.307 -0.036,-0.624 -0.024,-0.951 -0.009,-0.327 0.056,-0.653 0.086,-0.985 0.19,-1.323 0.687,-2.564 1.115,-3.433 0.438,-0.868 0.81,-1.377 0.81,-1.377 0,0 -0.404,0.467 -0.905,1.292 -0.491,0.829 -1.085,2.034 -1.382,3.41 -0.057,0.348 -0.147,0.69 -0.164,1.043 -0.037,0.352 -0.064,0.698 -0.044,1.039 -0.006,0.341 0.02,0.668 0.074,0.975 0.035,0.312 0.081,0.603 0.16,0.858 0.039,0.174 0.085,0.314 0.129,0.46 0.047,0.112 0.081,0.224 0.132,0.336 0.284,0 0.538,0 0.768,0 -0.003,-0.008 -0.004,-0.012 -0.009,-0.021 z"
             id="path8" />
        </g>
      </g>
      <path
         style="fill:#184f78;fill-opacity:1"
         d="m 95.133,92.344 c 0,-1.076 0.872,-1.947 1.947,-1.947 1.076,0 1.948,0.871 1.948,1.947 0,1.076 -0.872,1.947 -1.948,1.947 -1.075,0 -1.947,-0.871 -1.947,-1.947 z"
         id="path9" />
      <ellipse
         style="opacity:0.3"
         cx="75"
         cy="74.204002"
         rx="6.138"
         ry="3.638"
         id="ellipse9" />
      <path
         style="fill:#fdc00f"
         d="m 81.013,74.938 c -0.207,0.597 -0.662,1.141 -1.296,1.592 l -0.03,0.101 16.395,4.846 v 10.866 h 2 v -12.36 z"
         id="path10" />
      <path
         style="fill:#184f78"
         d="m 68.862,73.698 c 0,-1.73 2.366,-3.132 5.284,-3.132 2.918,0 5.284,1.401 5.284,3.132 0,1.729 -2.366,3.131 -5.284,3.131 -2.918,0 -5.284,-1.401 -5.284,-3.131 z"
         id="path11" />
    </g>
    <g
       id="g50"
       transform="matrix(0.33657346,0,0,0.33657346,-42.978204,75.806086)">
      <rect
         x="361.03"
         y="300.23801"
         style="fill:#d1dce4"
         width="36.220001"
         height="4.6420002"
         id="rect44" />
      <g
         id="g49">
        <g
           id="g48">
          <path
             style="fill:#fedfd2"
             d="m 355.377,290.723 4.807,13.442 c 0.17,0.477 0.713,0.79 1.211,0.699 l 14.045,-2.559 3.24,-5.613 -20.061,-11.584 z"
             id="path45" />
          <path
             style="fill:#184f78"
             d="m 364.064,298.838 c -1.773,-1.024 -3.918,-0.936 -5.777,0.022 l 1.897,5.306 c 0.17,0.477 0.713,0.79 1.211,0.699 l 5.541,-1.012 c -0.098,-2.09 -1.094,-3.991 -2.872,-5.015 z"
             id="path46" />
          <polygon
             style="fill:#fc611f"
             points="372.847,260.463 378.67,263.823 363.699,289.753 355.377,290.723 "
             id="polygon46" />
          <polygon
             style="fill:#fd814c"
             points="372.117,294.614 365.408,296.514 363.699,289.753 378.67,263.823 387.088,268.684 "
             id="polygon47" />
          <polygon
             style="fill:#fda079"
             points="387.088,268.684 392.91,272.045 375.439,302.306 372.117,294.614 "
             id="polygon48" />
          <rect
             x="382.039"
             y="253.217"
             transform="matrix(0.5,-0.866,0.866,0.5,-37.4714,464.6947)"
             style="fill:#d1dce4"
             width="3.358"
             height="23.167"
             id="rect48" />
          <path
             style="fill:#184f78"
             d="m 396.614,261.628 -16.599,-9.582 c -0.956,-0.553 -2.18,-0.225 -2.732,0.732 l -2.758,4.775 20.063,11.584 2.758,-4.776 c 0.552,-0.956 0.224,-2.179 -0.732,-2.733 z"
             id="path48" />
        </g>
      </g>
    </g>
  </g>
</svg>
